%TF.GenerationSoftware,KiCad,Pcbnew,9.0.7*%
%TF.CreationDate,2026-01-22T13:26:51+05:30*%
%TF.ProjectId,uc7800,75633738-3030-42e6-9b69-6361645f7063,rev?*%
%TF.SameCoordinates,Original*%
%TF.FileFunction,Legend,Top*%
%TF.FilePolarity,Positive*%
%FSLAX46Y46*%
G04 Gerber Fmt 4.6, Leading zero omitted, Abs format (unit mm)*
G04 Created by KiCad (PCBNEW 9.0.7) date 2026-01-22 13:26:51*
%MOMM*%
%LPD*%
G01*
G04 APERTURE LIST*
%ADD10C,0.150000*%
%ADD11C,0.120000*%
G04 APERTURE END LIST*
D10*
X147880952Y-92954819D02*
X147976190Y-92954819D01*
X147976190Y-92954819D02*
X148071428Y-93002438D01*
X148071428Y-93002438D02*
X148119047Y-93050057D01*
X148119047Y-93050057D02*
X148166666Y-93145295D01*
X148166666Y-93145295D02*
X148214285Y-93335771D01*
X148214285Y-93335771D02*
X148214285Y-93573866D01*
X148214285Y-93573866D02*
X148166666Y-93764342D01*
X148166666Y-93764342D02*
X148119047Y-93859580D01*
X148119047Y-93859580D02*
X148071428Y-93907200D01*
X148071428Y-93907200D02*
X147976190Y-93954819D01*
X147976190Y-93954819D02*
X147880952Y-93954819D01*
X147880952Y-93954819D02*
X147785714Y-93907200D01*
X147785714Y-93907200D02*
X147738095Y-93859580D01*
X147738095Y-93859580D02*
X147690476Y-93764342D01*
X147690476Y-93764342D02*
X147642857Y-93573866D01*
X147642857Y-93573866D02*
X147642857Y-93335771D01*
X147642857Y-93335771D02*
X147690476Y-93145295D01*
X147690476Y-93145295D02*
X147738095Y-93050057D01*
X147738095Y-93050057D02*
X147785714Y-93002438D01*
X147785714Y-93002438D02*
X147880952Y-92954819D01*
X148642857Y-93859580D02*
X148690476Y-93907200D01*
X148690476Y-93907200D02*
X148642857Y-93954819D01*
X148642857Y-93954819D02*
X148595238Y-93907200D01*
X148595238Y-93907200D02*
X148642857Y-93859580D01*
X148642857Y-93859580D02*
X148642857Y-93954819D01*
X149642856Y-93954819D02*
X149071428Y-93954819D01*
X149357142Y-93954819D02*
X149357142Y-92954819D01*
X149357142Y-92954819D02*
X149261904Y-93097676D01*
X149261904Y-93097676D02*
X149166666Y-93192914D01*
X149166666Y-93192914D02*
X149071428Y-93240533D01*
X150499999Y-93288152D02*
X150499999Y-93954819D01*
X150071428Y-93288152D02*
X150071428Y-93811961D01*
X150071428Y-93811961D02*
X150119047Y-93907200D01*
X150119047Y-93907200D02*
X150214285Y-93954819D01*
X150214285Y-93954819D02*
X150357142Y-93954819D01*
X150357142Y-93954819D02*
X150452380Y-93907200D01*
X150452380Y-93907200D02*
X150499999Y-93859580D01*
X151309523Y-93431009D02*
X150976190Y-93431009D01*
X150976190Y-93954819D02*
X150976190Y-92954819D01*
X150976190Y-92954819D02*
X151452380Y-92954819D01*
X152357142Y-93954819D02*
X151785714Y-93954819D01*
X152071428Y-93954819D02*
X152071428Y-92954819D01*
X152071428Y-92954819D02*
X151976190Y-93097676D01*
X151976190Y-93097676D02*
X151880952Y-93192914D01*
X151880952Y-93192914D02*
X151785714Y-93240533D01*
X172669166Y-91819819D02*
X172669166Y-92534104D01*
X172669166Y-92534104D02*
X172621547Y-92676961D01*
X172621547Y-92676961D02*
X172526309Y-92772200D01*
X172526309Y-92772200D02*
X172383452Y-92819819D01*
X172383452Y-92819819D02*
X172288214Y-92819819D01*
X173669166Y-92819819D02*
X173097738Y-92819819D01*
X173383452Y-92819819D02*
X173383452Y-91819819D01*
X173383452Y-91819819D02*
X173288214Y-91962676D01*
X173288214Y-91962676D02*
X173192976Y-92057914D01*
X173192976Y-92057914D02*
X173097738Y-92105533D01*
X178404762Y-92954819D02*
X178500000Y-92954819D01*
X178500000Y-92954819D02*
X178595238Y-93002438D01*
X178595238Y-93002438D02*
X178642857Y-93050057D01*
X178642857Y-93050057D02*
X178690476Y-93145295D01*
X178690476Y-93145295D02*
X178738095Y-93335771D01*
X178738095Y-93335771D02*
X178738095Y-93573866D01*
X178738095Y-93573866D02*
X178690476Y-93764342D01*
X178690476Y-93764342D02*
X178642857Y-93859580D01*
X178642857Y-93859580D02*
X178595238Y-93907200D01*
X178595238Y-93907200D02*
X178500000Y-93954819D01*
X178500000Y-93954819D02*
X178404762Y-93954819D01*
X178404762Y-93954819D02*
X178309524Y-93907200D01*
X178309524Y-93907200D02*
X178261905Y-93859580D01*
X178261905Y-93859580D02*
X178214286Y-93764342D01*
X178214286Y-93764342D02*
X178166667Y-93573866D01*
X178166667Y-93573866D02*
X178166667Y-93335771D01*
X178166667Y-93335771D02*
X178214286Y-93145295D01*
X178214286Y-93145295D02*
X178261905Y-93050057D01*
X178261905Y-93050057D02*
X178309524Y-93002438D01*
X178309524Y-93002438D02*
X178404762Y-92954819D01*
X179166667Y-93859580D02*
X179214286Y-93907200D01*
X179214286Y-93907200D02*
X179166667Y-93954819D01*
X179166667Y-93954819D02*
X179119048Y-93907200D01*
X179119048Y-93907200D02*
X179166667Y-93859580D01*
X179166667Y-93859580D02*
X179166667Y-93954819D01*
X179547619Y-92954819D02*
X180166666Y-92954819D01*
X180166666Y-92954819D02*
X179833333Y-93335771D01*
X179833333Y-93335771D02*
X179976190Y-93335771D01*
X179976190Y-93335771D02*
X180071428Y-93383390D01*
X180071428Y-93383390D02*
X180119047Y-93431009D01*
X180119047Y-93431009D02*
X180166666Y-93526247D01*
X180166666Y-93526247D02*
X180166666Y-93764342D01*
X180166666Y-93764342D02*
X180119047Y-93859580D01*
X180119047Y-93859580D02*
X180071428Y-93907200D01*
X180071428Y-93907200D02*
X179976190Y-93954819D01*
X179976190Y-93954819D02*
X179690476Y-93954819D01*
X179690476Y-93954819D02*
X179595238Y-93907200D01*
X179595238Y-93907200D02*
X179547619Y-93859580D01*
X180500000Y-92954819D02*
X181119047Y-92954819D01*
X181119047Y-92954819D02*
X180785714Y-93335771D01*
X180785714Y-93335771D02*
X180928571Y-93335771D01*
X180928571Y-93335771D02*
X181023809Y-93383390D01*
X181023809Y-93383390D02*
X181071428Y-93431009D01*
X181071428Y-93431009D02*
X181119047Y-93526247D01*
X181119047Y-93526247D02*
X181119047Y-93764342D01*
X181119047Y-93764342D02*
X181071428Y-93859580D01*
X181071428Y-93859580D02*
X181023809Y-93907200D01*
X181023809Y-93907200D02*
X180928571Y-93954819D01*
X180928571Y-93954819D02*
X180642857Y-93954819D01*
X180642857Y-93954819D02*
X180547619Y-93907200D01*
X180547619Y-93907200D02*
X180500000Y-93859580D01*
X181976190Y-93288152D02*
X181976190Y-93954819D01*
X181547619Y-93288152D02*
X181547619Y-93811961D01*
X181547619Y-93811961D02*
X181595238Y-93907200D01*
X181595238Y-93907200D02*
X181690476Y-93954819D01*
X181690476Y-93954819D02*
X181833333Y-93954819D01*
X181833333Y-93954819D02*
X181928571Y-93907200D01*
X181928571Y-93907200D02*
X181976190Y-93859580D01*
X182785714Y-93431009D02*
X182452381Y-93431009D01*
X182452381Y-93954819D02*
X182452381Y-92954819D01*
X182452381Y-92954819D02*
X182928571Y-92954819D01*
X183833333Y-93954819D02*
X183261905Y-93954819D01*
X183547619Y-93954819D02*
X183547619Y-92954819D01*
X183547619Y-92954819D02*
X183452381Y-93097676D01*
X183452381Y-93097676D02*
X183357143Y-93192914D01*
X183357143Y-93192914D02*
X183261905Y-93240533D01*
X162916666Y-79334819D02*
X162916666Y-80049104D01*
X162916666Y-80049104D02*
X162869047Y-80191961D01*
X162869047Y-80191961D02*
X162773809Y-80287200D01*
X162773809Y-80287200D02*
X162630952Y-80334819D01*
X162630952Y-80334819D02*
X162535714Y-80334819D01*
X163345238Y-79430057D02*
X163392857Y-79382438D01*
X163392857Y-79382438D02*
X163488095Y-79334819D01*
X163488095Y-79334819D02*
X163726190Y-79334819D01*
X163726190Y-79334819D02*
X163821428Y-79382438D01*
X163821428Y-79382438D02*
X163869047Y-79430057D01*
X163869047Y-79430057D02*
X163916666Y-79525295D01*
X163916666Y-79525295D02*
X163916666Y-79620533D01*
X163916666Y-79620533D02*
X163869047Y-79763390D01*
X163869047Y-79763390D02*
X163297619Y-80334819D01*
X163297619Y-80334819D02*
X163916666Y-80334819D01*
X162738095Y-91304819D02*
X162738095Y-92114342D01*
X162738095Y-92114342D02*
X162785714Y-92209580D01*
X162785714Y-92209580D02*
X162833333Y-92257200D01*
X162833333Y-92257200D02*
X162928571Y-92304819D01*
X162928571Y-92304819D02*
X163119047Y-92304819D01*
X163119047Y-92304819D02*
X163214285Y-92257200D01*
X163214285Y-92257200D02*
X163261904Y-92209580D01*
X163261904Y-92209580D02*
X163309523Y-92114342D01*
X163309523Y-92114342D02*
X163309523Y-91304819D01*
X164309523Y-92304819D02*
X163738095Y-92304819D01*
X164023809Y-92304819D02*
X164023809Y-91304819D01*
X164023809Y-91304819D02*
X163928571Y-91447676D01*
X163928571Y-91447676D02*
X163833333Y-91542914D01*
X163833333Y-91542914D02*
X163738095Y-91590533D01*
D11*
%TO.C,0.1uF1*%
X147380000Y-94630000D02*
X152620000Y-94630000D01*
X147380000Y-94967000D02*
X147380000Y-94630000D01*
X147380000Y-97370000D02*
X147380000Y-97033000D01*
X152620000Y-94630000D02*
X152620000Y-94967000D01*
X152620000Y-97033000D02*
X152620000Y-97370000D01*
X152620000Y-97370000D02*
X147380000Y-97370000D01*
%TO.C,J1*%
X169760000Y-93190000D02*
X170570000Y-93190000D01*
X169760000Y-94000000D02*
X169760000Y-93190000D01*
X170960000Y-93255000D02*
X172180000Y-93255000D01*
X172180000Y-93255000D02*
X172180000Y-94745000D01*
X172180000Y-94745000D02*
X171380000Y-94745000D01*
X172180000Y-93690000D02*
X176180000Y-93690000D01*
X176180000Y-94310000D01*
X172180000Y-94310000D01*
X172180000Y-93690000D01*
G36*
X172180000Y-93690000D02*
G01*
X176180000Y-93690000D01*
X176180000Y-94310000D01*
X172180000Y-94310000D01*
X172180000Y-93690000D01*
G37*
%TO.C,0.33uF1*%
X178380000Y-94630000D02*
X183620000Y-94630000D01*
X178380000Y-94967000D02*
X178380000Y-94630000D01*
X178380000Y-97370000D02*
X178380000Y-97033000D01*
X183620000Y-94630000D02*
X183620000Y-94967000D01*
X183620000Y-97033000D02*
X183620000Y-97370000D01*
X183620000Y-97370000D02*
X178380000Y-97370000D01*
%TO.C,J2*%
X157880000Y-80880000D02*
X168620000Y-80880000D01*
X157880000Y-84500000D02*
X159120000Y-84500000D01*
X157880000Y-85500000D02*
X159120000Y-85500000D01*
X157880000Y-86800000D02*
X159120000Y-86800000D01*
X157880000Y-88920000D02*
X157880000Y-80880000D01*
X160700000Y-88920000D02*
X157880000Y-88920000D01*
X162880000Y-84500000D02*
X164188000Y-84500000D01*
X162880000Y-85500000D02*
X164188000Y-85500000D01*
X162880000Y-86800000D02*
X165457000Y-86800000D01*
X166543000Y-86800000D02*
X168620000Y-86800000D01*
X167812000Y-84500000D02*
X168620000Y-84500000D01*
X167812000Y-85500000D02*
X168620000Y-85500000D01*
X168620000Y-80880000D02*
X168620000Y-88920000D01*
X168620000Y-88920000D02*
X161300000Y-88920000D01*
X161440000Y-89530000D02*
X160560000Y-89530000D01*
X161000000Y-88920000D01*
X161440000Y-89530000D01*
G36*
X161440000Y-89530000D02*
G01*
X160560000Y-89530000D01*
X161000000Y-88920000D01*
X161440000Y-89530000D01*
G37*
%TO.C,U1*%
X158390000Y-92690000D02*
X168610000Y-92690000D01*
X158390000Y-94070000D02*
X168610000Y-94070000D01*
X158390000Y-97310000D02*
X158390000Y-92690000D01*
X161650000Y-92690000D02*
X161650000Y-94070000D01*
X165350000Y-92690000D02*
X165350000Y-94070000D01*
X168610000Y-92690000D02*
X168610000Y-97310000D01*
X168610000Y-97310000D02*
X158390000Y-97310000D01*
%TD*%
M02*
